<svg xmlns="http://www.w3.org/2000/svg" x="0px" y="0px"
width="28" height="28"
viewBox="0 0 172 172"
style=" fill:#000000;"><g fill="none" fill-rule="nonzero" stroke="none" stroke-width="1" stroke-linecap="butt" stroke-linejoin="miter" stroke-miterlimit="10" stroke-dasharray="" stroke-dashoffset="0" font-family="none" font-weight="none" font-size="none" text-anchor="none" style="mix-blend-mode: normal"><path d="M0,172v-172h172v172z" fill="none"></path><g><path d="M104.53013,114.66966l10.13502,-10.13537l43.00186,43.00036l-10.13502,10.13537z" fill="#616161"></path><path d="M129,71.66667c0,31.66592 -25.66742,57.33333 -57.33333,57.33333c-31.66592,0 -57.33333,-25.66742 -57.33333,-57.33333c0,-31.66592 25.66742,-57.33333 57.33333,-57.33333c31.66592,0 57.33333,25.66742 57.33333,57.33333" fill="#616161"></path><path d="M116.37392,126.51683l10.13502,-10.13537l31.15107,31.14998l-10.13502,10.13537z" fill="#37474f"></path><path d="M25.08333,71.66667c0,-25.72833 20.855,-46.58333 46.58333,-46.58333c25.72833,0 46.58333,20.855 46.58333,46.58333c0,25.72833 -20.855,46.58333 -46.58333,46.58333c-25.72833,0 -46.58333,-20.855 -46.58333,-46.58333" fill="#64b5f6"></path><path d="M46.58333,64.5c-3.95804,0 -7.16667,3.20863 -7.16667,7.16667c0,3.95804 3.20863,7.16667 7.16667,7.16667c3.95804,0 7.16667,-3.20863 7.16667,-7.16667c0,-3.95804 -3.20863,-7.16667 -7.16667,-7.16667zM71.66667,64.5c-3.95804,0 -7.16667,3.20863 -7.16667,7.16667c0,3.95804 3.20863,7.16667 7.16667,7.16667c3.95804,0 7.16667,-3.20863 7.16667,-7.16667c0,-3.95804 -3.20863,-7.16667 -7.16667,-7.16667zM96.75,64.5c-3.95804,0 -7.16667,3.20863 -7.16667,7.16667c0,3.95804 3.20863,7.16667 7.16667,7.16667c3.95804,0 7.16667,-3.20863 7.16667,-7.16667c0,-3.95804 -3.20863,-7.16667 -7.16667,-7.16667z" fill="#e3f2fd"></path></g></g></svg>